<?xml version="1.0" encoding="utf-8"?>
<!-- Generator: Adobe Illustrator 16.0.0, SVG Export Plug-In . SVG Version: 6.00 Build 0)  -->
<!DOCTYPE svg PUBLIC "-//W3C//DTD SVG 1.1//EN" "http://www.w3.org/Graphics/SVG/1.1/DTD/svg11.dtd">
<svg version="1.1" id="Layer_1" xmlns="http://www.w3.org/2000/svg" xmlns:xlink="http://www.w3.org/1999/xlink" x="0px" y="0px"
	 width="133px" height="133px" viewBox="0 0 133 133" enable-background="new 0 0 133 133" xml:space="preserve">
<g>
	<path d="M65.935,61.545c-9.438-4.175-16.262-10.264-16.464-21.531c-0.179-9.99,7.612-18.042,17.504-19.566
		c14.622-2.256,22.506,6.148,29.496,16.765c3.612,5.484,6.951,11.241,11.23,16.165c4.419,5.088,8.109,5.101,12.02,1.559
		c3.952-3.583,5.104-10.033,1.377-13.81c-2.835-2.875-6.919-5.138-10.835-6.12c-2.896-0.726-5.435-1.141-5.638-4.156
		c-0.159-2.365,0.354-5.599,1.89-7.031c1.543-1.44,5.022-2.08,7.124-1.408c6.849,2.187,9.742,8.317,11.732,14.502
		c8.087,25.149-7.604,55.495-32.224,63.347c-11.605,3.703-22.92,5.068-34.103-0.758c-6.192-3.225-10.452-8.139-11.329-15.402
		c-1.199-9.926,3.62-16.295,14.187-18.941c1.586-0.398,3.049-1.3,4.569-1.968C66.294,62.641,66.116,62.092,65.935,61.545z"/>
	<path d="M20.537,76.004c-4.793,3.753-7,1.07-9.045-1.257c-2.8-3.184-4.932-6.666-3.485-11.306
		c3.247-10.403,13.89-15.257,25.472-11.515c5.727-6.472,4.822-18.576,2.021-23.292c-3.577-6.025-10.937-7.024-16.052-1.773
		c-2.933,3.01-5.77,3.852-9.137,1.766c-3.25-2.011-6.868-4.458-5.874-8.96c0.933-4.232,2.892-8.217,7.955-9.208
		c6.308-1.237,11.795,0.485,16.628,4.566c11.668,9.854,15.5,23.333,10.663,38.474c6.659,2.542,13.361,5.101,20.063,7.658
		c-0.125,0.57-0.25,1.139-0.375,1.708c-4.388-0.933-8.837-1.646-13.153-2.844c-8.229-2.284-8.472-2.529-12.037,4.947
		c-4.847,10.154-9.652,20.373-13.559,30.905c-1.275,3.437-0.679,8.358,0.797,11.872c3.768,8.963,12.633,11.338,20.522,5.801
		c3.917-2.748,6.178-0.99,8.259,1.854c2.161,2.957,1.155,7.048-2.552,8.103c-3.477,0.988-7.644,1.306-11.074,0.357
		c-8.462-2.336-14.918-7.924-19.76-15.159c-4.608-6.886-4.339-14.399-1.619-21.862C16.374,83.605,18.23,80.62,20.537,76.004z
		 M32.979,57.284c-6.182-2.958-13.103-1.267-16.829,3.578c-2.344,3.047-2.65,8.249-0.343,9.941c3.578,2.623,7.23,1.709,9.681-1.421
		C28.377,65.687,30.49,61.387,32.979,57.284z"/>
</g>
</svg>
