<?xml version="1.0" encoding="utf-8"?>
<!-- Generator: Adobe Illustrator 16.0.0, SVG Export Plug-In . SVG Version: 6.00 Build 0)  -->
<!DOCTYPE svg PUBLIC "-//W3C//DTD SVG 1.1//EN" "http://www.w3.org/Graphics/SVG/1.1/DTD/svg11.dtd">
<svg version="1.1" id="Layer_1" xmlns="http://www.w3.org/2000/svg" xmlns:xlink="http://www.w3.org/1999/xlink" x="0px" y="0px"
	 width="133px" height="133px" viewBox="0 0 133 133" enable-background="new 0 0 133 133" xml:space="preserve">
<g>
	<path d="M66.966,71.465c9.354,4.361,16.056,10.585,16.035,21.854c-0.02,9.991-7.969,17.888-17.889,19.216
		c-14.664,1.966-22.379-6.593-29.158-17.346c-3.503-5.555-6.727-11.376-10.908-16.384c-4.318-5.175-8.007-5.261-11.987-1.796
		c-4.022,3.503-5.301,9.93-1.649,13.779c2.777,2.931,6.815,5.274,10.711,6.334c2.88,0.782,5.41,1.248,5.554,4.266
		c0.113,2.368-0.464,5.592-2.029,6.993c-1.57,1.409-5.062,1.979-7.15,1.267c-6.804-2.321-9.576-8.509-11.443-14.732
		c-7.587-25.304,8.701-55.333,33.471-62.696c11.677-3.472,23.016-4.613,34.082,1.434c6.127,3.347,10.289,8.344,11.021,15.624
		c1.002,9.946-3.942,16.219-14.559,18.655c-1.594,0.367-3.074,1.239-4.607,1.877C66.629,70.362,66.796,70.914,66.966,71.465z"/>
	<path d="M112.642,57.907c4.866-3.656,7.02-0.931,9.018,1.437c2.736,3.238,4.799,6.763,3.261,11.372
		c-3.452,10.337-14.189,14.979-25.694,11.008c-5.854,6.358-5.189,18.478-2.482,23.247c3.458,6.095,10.797,7.24,16.015,2.092
		c2.991-2.952,5.845-3.737,9.17-1.585c3.209,2.075,6.778,4.593,5.695,9.075c-1.017,4.213-3.054,8.158-8.136,9.049
		c-6.331,1.111-11.783-0.719-16.534-4.895c-11.472-10.083-15.035-23.636-9.899-38.678c-6.608-2.673-13.258-5.364-19.907-8.055
		c0.136-0.567,0.272-1.134,0.408-1.7c4.368,1.02,8.803,1.821,13.094,3.104c8.183,2.446,8.42,2.696,12.134-4.708
		c5.047-10.056,10.054-20.178,14.168-30.631c1.343-3.411,0.844-8.344-0.562-11.885c-3.59-9.036-12.406-11.586-20.403-6.207
		c-3.971,2.67-6.197,0.867-8.221-2.018c-2.103-2.999-1.016-7.069,2.711-8.05c3.496-0.92,7.668-1.154,11.08-0.139
		c8.413,2.503,14.758,8.218,19.455,15.548c4.471,6.976,4.053,14.482,1.186,21.891C116.954,50.39,115.039,53.339,112.642,57.907z
		 M99.831,76.378c6.122,3.08,13.075,1.526,16.896-3.243c2.404-3,2.813-8.195,0.541-9.934c-3.526-2.693-7.196-1.852-9.707,1.229
		C104.599,68.067,102.401,72.325,99.831,76.378z"/>
</g>
</svg>
